<svg xmlns="http://www.w3.org/2000/svg" viewBox="0 0 993.48 804.48"><g id="Layer_2" data-name="Layer 2"><g id="Layer_2-2" data-name="Layer 2"><path d="M198.48,407.48a41.3,41.3,0,0,1-29.3-12.11l-.09-.09a41.55,41.55,0,0,1,0-58.6L288.68,217.09a41.55,41.55,0,0,1,58.6,0l.09.09a41.55,41.55,0,0,1,0,58.6l-.36-.36.36.36L227.78,395.37A41.3,41.3,0,0,1,198.48,407.48ZM318,206a40.16,40.16,0,0,0-28.59,11.79l-119.6,119.6a40.56,40.56,0,0,0,0,57.18l.09.09a40.57,40.57,0,0,0,57.19,0L346.66,275.07a40.55,40.55,0,0,0,0-57.19l-.09-.09A40.16,40.16,0,0,0,318,206Zm-18.5-3.54a41.15,41.15,0,0,1-29.3-12.09l-.09-.09a41.55,41.55,0,0,1,0-58.6L389.68,12.09a41.55,41.55,0,0,1,58.6,0l.09.09a41.55,41.55,0,0,1,0,58.6l-.36-.36.36.36L328.78,190.37A41.17,41.17,0,0,1,299.48,202.46ZM419,1a40.16,40.16,0,0,0-28.59,11.79l-119.6,119.6a40.56,40.56,0,0,0,0,57.18l.09.09a40.55,40.55,0,0,0,57.19,0L447.66,70.07a40.55,40.55,0,0,0,0-57.19l-.09-.09A40.16,40.16,0,0,0,419,1ZM41.48,407.48a41.3,41.3,0,0,1-29.3-12.11l-.09-.09a41.55,41.55,0,0,1,0-58.6L131.68,217.09a41.55,41.55,0,0,1,58.6,0l.09.09a41.55,41.55,0,0,1,0,58.6l-.36-.36.36.36L70.78,395.37A41.3,41.3,0,0,1,41.48,407.48ZM161,206a40.16,40.16,0,0,0-28.59,11.79L12.79,337.39a40.56,40.56,0,0,0,0,57.18l.09.09a40.57,40.57,0,0,0,57.19,0L189.66,275.07a40.55,40.55,0,0,0,0-57.19l-.09-.09A40.16,40.16,0,0,0,161,206Zm416.5,309.48a41.3,41.3,0,0,1-29.3-12.11l-.09-.09a41.48,41.48,0,0,1,0-58.6L667.68,325.09a41.48,41.48,0,0,1,58.6,0l.09.09a41.49,41.49,0,0,1,0,58.6L606.78,503.37A41.3,41.3,0,0,1,577.48,515.48ZM697,314a40.2,40.2,0,0,0-28.6,11.79L548.79,445.38a40.57,40.57,0,0,0,0,57.19l.09.09a40.48,40.48,0,0,0,57.19,0L725.66,383.07l.35.35-.35-.35a40.48,40.48,0,0,0,0-57.19l-.09-.09A40.16,40.16,0,0,0,697,314Zm-70.5,5.48a41.28,41.28,0,0,1-29.3-12.11l-.09-.09a41.48,41.48,0,0,1,0-58.6L716.68,129.09a41.48,41.48,0,0,1,58.6,0l.09.09a41.49,41.49,0,0,1,0,58.6L655.78,307.37A41.3,41.3,0,0,1,626.48,319.48ZM746,118a40.2,40.2,0,0,0-28.6,11.79L597.79,249.39a40.49,40.49,0,0,0,0,57.18l.09.09a40.55,40.55,0,0,0,57.19,0L774.66,187.07l.35.35-.35-.35a40.48,40.48,0,0,0,0-57.19l-.09-.09A40.16,40.16,0,0,0,746,118ZM411.48,349.46a41.15,41.15,0,0,1-29.3-12.09l-.09-.09a41.55,41.55,0,0,1,0-58.6L501.68,159.09a41.55,41.55,0,0,1,58.6,0l.09.09a41.49,41.49,0,0,1,0,58.6L440.78,337.37A41.17,41.17,0,0,1,411.48,349.46ZM531,148a40.16,40.16,0,0,0-28.59,11.79l-119.6,119.6a40.56,40.56,0,0,0,0,57.18l.09.09a40.55,40.55,0,0,0,57.19,0L559.66,217.07a40.57,40.57,0,0,0,0-57.19l-.09-.09A40.16,40.16,0,0,0,531,148Zm301.5,377.48a41.28,41.28,0,0,1-29.3-12.11l-.09-.09a41.48,41.48,0,0,1,0-58.6L922.68,335.09a41.48,41.48,0,0,1,58.6,0l.09.09a41.49,41.49,0,0,1,0,58.6L861.78,513.37A41.3,41.3,0,0,1,832.48,525.48ZM952,324a40.2,40.2,0,0,0-28.6,11.79L803.79,455.38a40.5,40.5,0,0,0,0,57.19l.09.09a40.48,40.48,0,0,0,57.19,0L980.66,393.07l.35.35-.35-.35a40.48,40.48,0,0,0,0-57.19l-.09-.09A40.16,40.16,0,0,0,952,324ZM491.48,804.48a41.3,41.3,0,0,1-29.3-12.11l-.09-.09a41.48,41.48,0,0,1,0-58.6L581.68,614.09a41.48,41.48,0,0,1,58.6,0l.09.09a41.49,41.49,0,0,1,0,58.6L520.78,792.37A41.3,41.3,0,0,1,491.48,804.48ZM611,603a40.34,40.34,0,0,0-28.6,11.82L462.79,734.38a40.57,40.57,0,0,0,0,57.19l.09.09a40.48,40.48,0,0,0,57.19,0L639.66,672.07a40.48,40.48,0,0,0,0-57.19l-.09-.09A40.32,40.32,0,0,0,611,603Zm-279.5-3.49a41.3,41.3,0,0,1-29.3-12.11l-.09-.09a41.48,41.48,0,0,1,0-58.6L421.68,409.09a41.48,41.48,0,0,1,58.6,0l.09.09a41.49,41.49,0,0,1,0,58.6L360.78,587.37A41.3,41.3,0,0,1,331.48,599.48ZM451,398a40.16,40.16,0,0,0-28.59,11.79L302.79,529.38a40.57,40.57,0,0,0,0,57.19l.09.09a40.48,40.48,0,0,0,57.19,0L479.66,467.07a40.55,40.55,0,0,0,0-57.19l-.09-.09A40.16,40.16,0,0,0,451,398ZM128.48,658.48a41.3,41.3,0,0,1-29.3-12.11l-.09-.09a41.48,41.48,0,0,1,0-58.6L218.68,468.09a41.48,41.48,0,0,1,58.6,0l.09.09a41.49,41.49,0,0,1,0,58.6L157.78,646.37A41.3,41.3,0,0,1,128.48,658.48ZM248,457a40.3,40.3,0,0,0-28.59,11.82L99.79,588.38a40.57,40.57,0,0,0,0,57.19l.09.09a40.48,40.48,0,0,0,57.19,0L276.66,526.07a40.55,40.55,0,0,0,0-57.19l-.09-.09A40.32,40.32,0,0,0,248,457Z"/></g></g></svg>